<svg width="151" height="150" viewBox="0 0 151 150" fill="none" xmlns="http://www.w3.org/2000/svg">
<path fill-rule="evenodd" clip-rule="evenodd" d="M0.322354 75C0.322354 33.5786 33.9733 0 75.4839 0C114.629 0 146.785 29.8607 150.322 68H112.001C108.917 50.3875 93.5165 37 74.9828 37C54.2275 37 37.402 53.7893 37.402 74.5C37.402 95.2107 54.2275 112 74.9828 112C93.1641 112 108.33 99.1168 111.812 82H150.322C146.785 120.139 114.629 150 75.4839 150C33.9733 150 0.322354 116.421 0.322354 75ZM75.4839 50C61.647 50 50.43 61.1929 50.43 75C50.43 88.8071 61.647 100 75.4839 100C89.3207 100 100.538 88.8071 100.538 75C100.538 61.1929 89.3207 50 75.4839 50Z" fill="#F5F5F5"/>
</svg>
