<svg width="151" height="150" viewBox="0 0 151 150" fill="none" xmlns="http://www.w3.org/2000/svg">
<path fill-rule="evenodd" clip-rule="evenodd" d="M150.322 75C150.322 116.421 116.671 150 75.1608 150C36.0157 150 3.86002 120.139 0.322357 82H38.6437C41.7281 99.6125 57.1283 113 75.6619 113C96.4172 113 113.243 96.2107 113.243 75.5C113.243 54.7893 96.4172 38 75.6619 38C57.4807 38 42.3149 50.8832 38.8329 68H0.322357C3.86002 29.8607 36.0157 0 75.1608 0C116.671 0 150.322 33.5786 150.322 75ZM75.1608 100C88.9977 100 100.215 88.8071 100.215 75C100.215 61.1929 88.9977 50 75.1608 50C61.324 50 50.107 61.1929 50.107 75C50.107 88.8071 61.324 100 75.1608 100Z" fill="#F5F5F5"/>
</svg>
